<svg width="902" height="564" viewBox="0 0 902 564" fill="none" xmlns="http://www.w3.org/2000/svg">
<g clip-path="url(#clip0)">
<path d="M778.262 562.037C778.262 562.037 843.033 577.395 874.942 507.822C916.323 417.551 858.251 331.812 758.077 325.635C613.606 316.714 693.682 86.1431 465.698 148.701C401.591 166.282 262.174 75.4907 180.105 229.359C166.158 255.513 124.431 254.243 68.8426 298.874C-29.1946 377.626 6.09305 562.874 88.7099 563.711C171.327 564.549 778.262 562.037 778.262 562.037Z" fill="#F2E5ED"/>
<path d="M103.148 563.394C103.148 563.394 106.152 543.677 144.587 538.365C183.022 533.053 218.743 490.501 282.099 496.679C345.455 502.857 398.04 541.598 470.174 529.733C542.309 517.868 587.472 532.995 603.643 544.918C619.815 556.84 686.78 542.118 691.718 564L103.148 563.394Z" fill="#80BD3E"/>
<path d="M261.105 93.3602C261.105 93.3602 217.732 91.2528 240.747 223.383C240.747 223.383 256.225 268.244 236.675 297.141H524.289V93.3602H261.105Z" fill="#AE264A"/>
<path d="M290.646 436.893C290.646 436.893 270.548 413.452 289.405 398.585C289.405 398.585 303.179 390.242 314.412 390.935C314.412 390.935 298.501 417.609 303.641 420.265C308.781 422.921 319.234 389.26 319.234 389.26C319.234 389.26 350.566 386.229 360.644 391.079C360.644 391.079 333.846 412.99 339.506 414.289C345.137 415.588 374.072 394.081 374.072 394.081C374.072 394.081 403.238 399.047 401.678 416.829C400.119 434.612 390.07 440.097 385.651 439.635C381.233 439.174 355.388 429.301 354.84 432.909C354.291 436.518 369.827 448.354 380.713 448.902C380.713 448.902 360.153 471.564 346.494 465.04C332.835 458.486 331.652 448.123 323.133 444.225C314.614 440.328 307.337 440.357 310.86 444.312C314.383 448.267 329.803 452.135 334.655 460.738C339.535 469.341 343.895 475.172 329.746 473.036C315.596 470.9 292.61 460.565 291.599 448.729C290.646 436.893 290.646 436.893 290.646 436.893Z" fill="#599DAD"/>
<path d="M387.355 417.291C387.355 417.291 308.146 414.231 290.646 436.893C290.646 436.893 286.777 448.469 274.879 459.035L273.031 464.087C273.031 464.087 286.748 449.624 291.686 448.729C291.657 448.729 283.976 420.669 387.355 417.291Z" fill="#599DAD"/>
<path d="M274.879 459.006C274.879 459.006 257.871 471.564 256.687 494.052L259.777 494.341C259.777 494.341 265.206 471.102 275.024 462.037C284.842 452.944 274.879 459.006 274.879 459.006Z" fill="#599DAD" fill-opacity="0.8"/>
<path d="M220.389 407.419C220.389 407.419 252.355 389.52 237.426 365.242C237.426 365.242 225.5 350.317 212.707 346.506C212.707 346.506 219.522 382.707 212.707 383.573C205.892 384.439 208.029 342.667 208.029 342.667C208.029 342.667 174.359 326.472 161.162 327.742C161.162 327.742 182.04 363.106 175.225 362.24C168.41 361.374 144.962 325.606 144.962 325.606C144.962 325.606 110.454 319.226 104.91 339.665C99.3655 360.103 108.317 370.352 113.429 371.622C118.54 372.892 151.344 372.488 150.507 376.732C149.64 381.004 127.492 387.817 115.132 383.977C115.132 383.977 128.762 417.638 146.666 415.935C164.57 414.231 170.114 403.146 181.174 402.309C192.263 401.443 200.348 404.445 194.804 407.419C189.259 410.392 170.518 408.4 161.566 415.992C152.615 423.585 145.366 428.29 162 431.697C178.633 435.103 208.463 432.967 214.411 420.207C220.389 407.419 220.389 407.419 220.389 407.419Z" fill="#30957B"/>
<path d="M120.677 346.073C120.677 346.073 210.166 375.057 220.389 407.419C220.389 407.419 219.956 421.911 228.907 438.51V444.89C228.907 444.89 219.522 423.152 214.411 420.178C214.411 420.207 234.452 392.09 120.677 346.073Z" fill="#6BB7BF" fill-opacity="0.8"/>
<path d="M228.907 438.51C228.907 438.51 242.711 459.468 234.827 484.959L231.275 484.006C231.275 484.006 234.712 455.917 227.492 441.801C220.302 427.684 228.907 438.51 228.907 438.51Z" fill="#6BB7BF" fill-opacity="0.8"/>
<path d="M271.241 382.736C271.241 382.736 229.11 359.151 248.775 327.136C248.775 327.136 264.513 307.476 281.348 302.424C281.348 302.424 272.367 350.173 281.348 351.27C290.329 352.395 287.528 297.344 287.528 297.344C287.528 297.344 331.911 276.01 349.324 277.684C349.324 277.684 321.804 324.307 330.785 323.181C339.766 322.055 370.664 274.884 370.664 274.884C370.664 274.884 416.174 266.455 423.48 293.418C430.786 320.381 418.975 333.862 412.247 335.536C405.519 337.211 362.261 336.662 363.387 342.263C364.513 347.892 393.708 356.87 410.023 351.818C410.023 351.818 392.033 396.189 368.441 393.937C344.848 391.685 337.542 377.078 322.931 375.952C308.319 374.826 297.663 378.752 304.94 382.678C312.246 386.604 336.965 383.977 348.747 393.995C360.557 404.012 370.087 410.19 348.198 414.693C326.28 419.197 286.979 416.368 279.096 399.537C271.241 382.736 271.241 382.736 271.241 382.736Z" fill="#86D1CD"/>
<path d="M402.689 301.876C402.689 301.876 284.727 340.069 271.241 382.736C271.241 382.736 271.79 401.818 260.008 423.729V432.159C260.008 432.159 272.367 403.521 279.096 399.595C279.096 399.595 252.702 362.528 402.689 301.876Z" fill="#6BB7BF" fill-opacity="0.8"/>
<path d="M260.008 423.729C260.008 423.729 241.815 451.356 252.182 484.959L256.86 483.688C256.86 483.688 252.327 446.65 261.827 428.03C271.356 409.439 260.008 423.729 260.008 423.729Z" fill="#6BB7BF" fill-opacity="0.8"/>
<path d="M269.826 557.88C315.394 557.88 352.356 520.928 352.356 475.374H187.296C187.296 520.928 224.229 557.88 269.826 557.88Z" fill="#E394A9"/>
<path d="M290.127 557.245C286.777 557.678 283.34 557.88 279.875 557.88C234.307 557.88 197.345 520.928 197.345 475.374H217.848C217.848 517.464 249.381 552.193 290.127 557.245Z" fill="#F1C7D2"/>
<path d="M353.482 562.066H186.141C186.141 556.437 190.703 551.875 196.334 551.875H343.318C348.92 551.904 353.482 556.466 353.482 562.066Z" fill="#E394A9"/>
<path d="M354.233 475.374H184.581V477.915H354.233V475.374Z" fill="#E394A9"/>
<path d="M568.471 161.663C568.471 161.663 554.004 134.382 575.662 124.019C575.662 124.019 590.938 118.909 601.738 122.027C601.738 122.027 580.369 144.544 584.787 148.268C589.234 151.992 606.791 121.449 606.791 121.449C606.791 121.449 638.036 125.375 646.814 132.304C646.814 132.304 615.858 147.806 621.085 150.318C626.312 152.829 659.26 138.193 659.26 138.193C659.26 138.193 686.636 149.423 681.207 166.455C675.778 183.458 664.776 186.634 660.56 185.19C656.344 183.747 633.3 168.476 631.972 171.882C630.614 175.289 643.205 190.242 653.716 193.158C653.716 193.158 628.68 210.768 616.782 201.386C604.885 192.003 606.011 181.64 598.561 175.953C591.111 170.294 584.007 168.707 586.577 173.354C589.147 178.002 603.326 185.133 606.185 194.63C609.043 204.099 612.047 210.739 598.706 205.543C585.364 200.375 565.237 185.219 566.854 173.441C568.471 161.663 568.471 161.663 568.471 161.663Z" fill="#30957B"/>
<path d="M667.115 163.77C667.115 163.77 590.504 143.418 568.442 161.663C568.442 161.663 562.118 172.113 548.2 179.792L545.283 184.324C545.283 184.324 561.859 173.21 566.825 173.441C566.854 173.441 565.497 144.371 667.115 163.77Z" fill="#599DAD"/>
<path d="M548.2 179.792C548.2 179.792 528.852 188.337 522.759 209.988L525.705 210.941C525.705 210.941 536.1 189.463 547.68 182.765C559.259 176.068 548.2 179.792 548.2 179.792Z" fill="#599DAD"/>
<path d="M473.264 112.471C473.264 112.471 430.44 90.1558 449.152 57.5635C449.152 57.5635 464.283 37.4423 480.974 31.8995C480.974 31.8995 473.409 79.8787 482.418 80.7447C491.428 81.6108 486.981 26.6744 486.981 26.6744C486.981 26.6744 530.7 4.01276 548.171 5.19636C548.171 5.19636 522.037 52.5981 530.989 51.2124C539.97 49.8268 569.453 1.73217 569.453 1.73217C569.453 1.73217 614.675 -8.05419 622.789 18.6779C630.904 45.4099 619.497 59.2378 612.827 61.1143C606.127 62.9907 562.898 63.7124 564.169 69.3129C565.468 74.8845 594.923 82.9965 611.065 77.4537C611.065 77.4537 594.432 122.344 570.782 120.785C547.131 119.255 539.392 104.879 524.752 104.186C510.111 103.493 499.571 107.737 506.992 111.461C514.414 115.185 539.046 111.807 551.116 121.478C563.216 131.149 572.947 137.038 551.174 142.176C529.401 147.315 490.013 145.67 481.667 129.07C473.264 112.471 473.264 112.471 473.264 112.471Z" fill="#80BD3E" fill-opacity="0.3"/>
<path d="M602.257 27.7424C602.257 27.7424 485.479 69.4282 473.264 112.5C473.264 112.5 474.39 131.582 463.244 153.81L463.504 162.24C463.504 162.24 474.997 133.256 481.638 129.128C481.638 129.099 454.148 92.8116 602.257 27.7424Z" fill="#6BB7BF" fill-opacity="0.8"/>
<path d="M463.244 153.781C463.244 153.781 445.889 181.928 457.237 215.213L461.887 213.827C461.887 213.827 456.256 176.963 465.207 158.054C474.188 139.174 463.244 153.781 463.244 153.781Z" fill="#6BB7BF"/>
<path d="M579.589 171.564H279.327V563.047H579.589V171.564Z" fill="#612747"/>
<path d="M584.354 171.564H289.145V563.047H584.354V171.564Z" fill="#FCF6F9"/>
<path d="M792.528 562.066H733.041C729.864 559.352 735.236 553.232 740.895 552.799C743.35 552.626 746.44 553.117 749.963 553.867C750.771 542.984 755.45 494.139 773.064 496.102C792.874 498.296 773.064 517.609 767.462 529.069C763.304 537.528 758.944 549.681 756.951 555.426C758.568 555.773 760.214 556.119 761.918 556.436C764.546 548.382 774.306 521.275 786.752 522.834C801.335 524.681 795.473 535.565 785.135 542.002C777.54 546.737 768.242 553.492 763.795 556.754C767.549 557.36 771.447 557.764 775.432 557.678C785.626 557.447 790.622 560.449 792.528 562.066Z" fill="#80BD3E"/>
<path d="M584.382 171.564H289.174C290.82 149.249 288.336 133.054 284.409 121.391C276.843 98.9894 263.791 93.3601 263.791 93.3601H542.222C565.988 93.3601 584.411 107.679 589.436 126.674C589.609 127.396 589.811 128.089 589.956 128.81C594.663 150.548 584.585 171.16 584.382 171.564Z" fill="#FCF6F9"/>
<path d="M584.383 171.564H289.174C290.82 149.249 288.336 133.054 284.409 121.391C314.585 126.905 389.29 138.683 469.279 136.692C521.027 135.421 561.916 131.957 589.927 128.811C594.663 150.548 584.585 171.16 584.383 171.564Z" fill="#F2E5ED"/>
<path d="M507.108 261.836H349.122C347.909 261.836 346.899 260.854 346.899 259.613V256.697C346.899 255.485 347.88 254.474 349.122 254.474H507.108C508.321 254.474 509.331 255.456 509.331 256.697V259.613C509.303 260.854 508.321 261.836 507.108 261.836Z" fill="#E394A9"/>
<path d="M446.351 274.191H348.66C347.707 274.191 346.928 273.412 346.928 272.459V268.62C346.928 267.667 347.707 266.887 348.66 266.887H446.351C447.304 266.887 448.083 267.667 448.083 268.62V272.459C448.112 273.412 447.304 274.191 446.351 274.191Z" fill="#E394A9"/>
<path d="M331.825 273.008V258.025H329.832C328.62 258.025 328.042 257.534 328.042 256.524C328.042 255.802 328.504 255.283 329.457 254.994C329.948 254.821 330.699 254.705 331.738 254.647C332.778 254.561 333.644 254.532 334.279 254.532C334.886 254.532 335.29 254.647 335.463 254.907C335.637 255.167 335.694 255.802 335.694 256.813V273.037H337.745C339.073 273.037 339.737 273.614 339.737 274.74C339.737 275.952 339.073 276.53 337.745 276.53H329.515C328.937 276.53 328.446 276.385 328.071 276.068C327.695 275.75 327.493 275.317 327.493 274.769C327.493 273.614 328.157 273.037 329.515 273.037H331.825V273.008Z" fill="#E394A9"/>
<path d="M507.108 339.145H349.122C347.909 339.145 346.899 338.163 346.899 336.922V334.006C346.899 332.794 347.88 331.783 349.122 331.783H507.108C508.321 331.783 509.331 332.765 509.331 334.006V336.922C509.303 338.163 508.321 339.145 507.108 339.145Z" fill="#D7C7D0"/>
<path d="M446.351 351.5H348.66C347.707 351.5 346.928 350.721 346.928 349.768V345.929C346.928 344.976 347.707 344.197 348.66 344.197H446.351C447.304 344.197 448.083 344.976 448.083 345.929V349.768C448.112 350.721 447.304 351.5 446.351 351.5Z" fill="#D7C7D0"/>
<path d="M340.026 349.999C340.026 351.01 339.333 351.5 337.918 351.5H329.226C327.984 351.5 327.349 351.01 327.349 349.999C327.349 349.682 327.522 349.306 327.84 348.873C328.331 348.296 329.053 347.459 330.006 346.333C331.449 344.514 332.662 342.926 333.644 341.627C333.991 341.194 334.453 340.502 335.088 339.607C335.608 338.712 335.868 337.932 335.868 337.326C335.868 336.633 335.637 336.056 335.203 335.623C334.77 335.161 334.193 334.959 333.5 334.959C332.836 334.959 332.258 335.161 331.738 335.594C331.392 335.883 331.132 336.402 330.93 337.182C330.67 338.192 330.525 338.769 330.439 338.943C330.179 339.52 329.746 339.78 329.139 339.78C328.62 339.78 328.186 339.578 327.898 339.202C327.609 338.856 327.464 338.423 327.464 337.875C327.464 337.268 327.551 336.633 327.753 335.998C328.186 334.641 328.937 333.602 330.006 332.88C331.016 332.187 332.287 331.841 333.731 331.841C335.348 331.841 336.676 332.332 337.773 333.313C338.9 334.353 339.448 335.652 339.448 337.239C339.448 338.423 339.044 339.636 338.264 340.906C337.831 341.599 336.907 342.811 335.521 344.572C334.828 345.467 333.702 346.795 332.171 348.498H337.889C339.333 348.44 340.026 348.96 340.026 349.999Z" fill="#D7C7D0"/>
<path d="M507.108 403.637H349.122C347.909 403.637 346.899 402.655 346.899 401.414V398.498C346.899 397.286 347.88 396.275 349.122 396.275H507.108C508.321 396.275 509.331 397.257 509.331 398.498V401.414C509.303 402.655 508.321 403.637 507.108 403.637Z" fill="#D7C7D0"/>
<path d="M446.351 415.992H348.66C347.707 415.992 346.928 415.213 346.928 414.26V410.421C346.928 409.468 347.707 408.689 348.66 408.689H446.351C447.304 408.689 448.083 409.468 448.083 410.421V414.26C448.112 415.213 447.304 415.992 446.351 415.992Z" fill="#D7C7D0"/>
<path d="M340.026 409.843C340.026 411.72 339.362 413.221 338.033 414.376C336.792 415.473 335.203 415.992 333.298 415.992C331.825 415.992 330.554 415.646 329.515 414.924C327.84 413.798 327.031 412.47 327.031 410.883C327.031 410.421 327.176 410.046 327.464 409.728C327.753 409.41 328.129 409.237 328.562 409.237C329.024 409.237 329.486 409.555 329.89 410.19C330.554 411.229 330.959 411.806 331.045 411.922C331.652 412.557 332.402 412.875 333.355 412.875C334.626 412.875 335.521 412.413 336.07 411.46C336.33 410.998 336.445 410.392 336.445 409.67C336.445 407.909 335.406 406.928 333.326 406.726C332.143 406.61 331.565 406.119 331.565 405.224C331.565 404.589 331.911 404.127 332.576 403.839C333.846 403.377 334.482 403.117 334.51 403.117C335.203 402.655 335.521 401.876 335.521 400.75C335.521 400.086 335.319 399.566 334.915 399.162C334.51 398.787 333.991 398.585 333.326 398.585C332.489 398.585 331.854 398.787 331.392 399.191C330.987 399.537 330.67 400.115 330.381 400.952C330.15 401.587 329.746 401.905 329.139 401.905C328.706 401.905 328.36 401.703 328.071 401.327C327.782 400.952 327.638 400.519 327.638 400.086C327.638 399.537 327.782 398.96 328.1 398.412C328.62 397.459 329.37 396.737 330.439 396.218C331.392 395.727 332.431 395.496 333.586 395.496C335.117 395.496 336.387 395.958 337.427 396.882C338.438 397.805 338.957 399.047 338.957 400.548C338.957 402.367 338.207 403.81 336.676 404.878C338.929 405.773 340.026 407.418 340.026 409.843Z" fill="#D7C7D0"/>
<path d="M488.887 197.575H389.867C388.597 197.575 387.557 196.536 387.557 195.265V191.339C387.557 190.069 388.597 189.03 389.867 189.03H488.887C490.157 189.03 491.197 190.069 491.197 191.339V195.265C491.197 196.536 490.157 197.575 488.887 197.575Z" fill="#E394A9"/>
<path d="M514.5 210.71H364.283C362.723 210.71 361.453 209.44 361.453 207.881V204.994C361.453 203.435 362.723 202.165 364.283 202.165H514.5C516.06 202.165 517.33 203.435 517.33 204.994V207.881C517.301 209.44 516.031 210.71 514.5 210.71Z" fill="#E394A9"/>
<path d="M427.956 301.414C395.787 301.414 365.264 297.372 342.538 291.599C319.552 285.767 307.164 276.241 307.164 267.811C307.164 260.161 317.242 253.117 336.33 247.459C318.022 252.886 308.261 260.854 308.261 267.811C308.261 275.548 320.938 283.169 343.058 288.77C365.726 294.514 395.874 297.69 427.956 297.69C460.039 297.69 490.186 294.514 512.854 288.77C534.974 283.169 547.651 275.519 547.651 267.811C547.651 259.642 534.31 249.48 512.797 241.281C488.367 231.986 458.219 228.522 427.956 228.522C371.126 228.522 347.736 235.161 327.436 243.475C347.823 235.132 370.924 225.664 427.956 225.664C458.335 225.664 488.598 230.802 513.172 240.155C535.119 248.498 548.749 259.093 548.749 267.811C548.749 276.27 536.1 284.122 513.114 289.953C490.359 295.727 460.096 301.414 427.956 301.414Z" fill="#F55E7C"/>
<path d="M623.251 376.789C623.251 376.789 622.182 387.095 621.027 389.029C619.872 390.963 614.905 397.199 612.797 398.411C610.689 399.624 614.097 390.213 613.664 388.394C613.231 386.575 611.931 391.743 611.007 391.858C610.083 391.974 610.314 387.326 610.285 385.623C610.256 383.92 614.819 379.734 616.407 376.125C617.995 372.517 623.251 376.789 623.251 376.789Z" fill="#D2BCCA"/>
<path d="M496.741 281.87L494.373 277.395C494.373 277.395 495.557 269.428 485.566 264.405C485.566 264.405 481.927 262.932 479.877 265.906C477.971 268.648 483.487 268.158 483.198 272.834C482.909 277.511 485.132 280.253 488.222 281.783L490.792 284.757L496.741 281.87Z" fill="#D2BCCA"/>
<path d="M590.966 271.189C590.966 271.189 582.419 313.192 535.292 326.905C520.593 331.177 487.183 282.794 487.183 282.794C487.183 282.794 488.367 278.319 495.702 279.359C495.702 279.359 528.217 300.894 532.318 303.233C535.956 305.311 559.837 276.558 570.753 271.911C581.639 267.292 590.966 271.189 590.966 271.189Z" fill="#AE264A"/>
<path d="M465.608 262.919L464.271 271.622L508.026 278.34L509.363 269.637L465.608 262.919Z" fill="#F3254D"/>
<path d="M454.783 265.703L464.283 271.621L465.612 262.931L454.783 265.703Z" fill="#D2BCCA"/>
<path d="M514.01 273.325L513.576 276.068C513.316 277.771 511.728 278.926 510.053 278.666L508.032 278.348L509.36 269.659L511.555 270.005C513.143 270.236 514.241 271.709 514.01 273.325Z" fill="#D2BCCA"/>
<path d="M647.19 535.247C647.19 535.247 653.023 540.588 651.897 544.37C650.771 548.151 645.486 550.692 644.764 555.311C644.042 559.93 641.212 562.47 638.642 562.47C636.072 562.47 626.398 562.47 626.398 562.47C626.398 562.47 624.521 559.208 629.084 558.226C633.647 557.245 635.35 551.818 635.09 546.766C634.802 541.714 635.524 534.987 635.524 534.987L645.226 532.736L647.19 535.247Z" fill="#350C23"/>
<path d="M575.517 549.017C575.517 549.017 576.557 561.142 573.987 562.412L541.154 562.354C541.154 562.354 541.154 558.573 546.438 557.735C551.723 556.898 560.963 553.809 562.551 546.939C564.111 540.039 575.517 549.017 575.517 549.017Z" fill="#350C23"/>
<path d="M547.795 377.626C547.795 377.626 549.528 398.902 551.549 424.451C554.322 459.179 557.642 501.847 557.96 509.93C558.538 523.96 560.819 546.419 560.819 546.419C560.819 546.419 566.219 551.76 577.077 549.508C577.077 549.508 586.722 517.464 589.494 483.544C589.523 482.996 589.58 482.418 589.609 481.87C592.179 447.343 596.164 374.682 596.164 374.682L547.795 377.626Z" fill="#612747"/>
<path d="M547.795 377.626C547.795 377.626 549.528 398.902 551.549 424.451L589.494 483.544C589.523 482.996 589.58 482.418 589.609 481.87C592.179 447.343 596.164 374.682 596.164 374.682L547.795 377.626Z" fill="#350C23"/>
<path d="M555.679 380.138C555.679 380.138 586.895 457.158 607.426 493.359C627.958 529.56 634.369 539.664 634.369 539.664C634.369 539.664 646.121 535.045 647.19 531.869C647.19 531.869 639.335 461.979 625.59 444.947C617.822 435.334 608.697 406.437 608.264 396.333C607.831 386.229 605.492 366.223 605.492 366.223L555.679 380.138Z" fill="#612747"/>
<path d="M596.771 261.431C596.771 261.431 575.662 271.622 563.476 267.84C563.476 267.84 566.479 264.058 571.706 261.258C571.273 258.804 570.955 256.697 570.782 254.907C570.262 250.75 570.262 248.412 570.262 248.412L578.405 242.003L586.144 235.883C585.538 253.088 596.771 261.431 596.771 261.431Z" fill="#D2BCCA"/>
<path d="M607.888 370.207C607.946 371.506 605.174 372.979 603.961 373.527C594.923 377.482 586.491 380.253 576.932 381.177C565.641 382.332 552.3 379.791 547.709 379.878C547.247 379.878 546.814 379.705 546.438 379.358C546.121 379.127 545.89 365.531 546.121 348.44C546.121 347.748 546.121 347.055 546.178 346.362V346.131C546.265 339.434 546.496 332.447 546.843 325.432C547.507 310.046 548.72 295.178 550.77 286.98C553.253 277.309 558.884 270.9 563.967 266.224L568.183 262.528C572.399 263.366 576.846 263.135 581.293 260.97C586.173 258.631 591.4 256.091 592.237 256.726C598.619 261.374 602.921 271.853 605.203 285.219C606.502 292.927 607.166 301.53 607.138 310.565C607.138 313.885 607.051 317.292 606.849 320.669C605.723 338.914 606.849 354.792 607.513 363.943C607.715 366.656 607.859 368.735 607.888 370.207Z" fill="#F3254D"/>
<path d="M607.513 369.37C533.559 369.226 593.883 289.145 593.883 289.145L605.867 285.248C606.82 293.475 607.282 302.684 607.253 312.326C607.253 315.877 607.195 319.514 607.051 323.123C606.242 342.638 607.051 359.555 607.513 369.37Z" fill="#AE264A"/>
<path d="M586.26 242.465C586.26 242.465 580.917 252.193 570.753 254.907C570.233 250.75 570.233 248.412 570.233 248.412L578.376 242.003L586.26 242.465Z" fill="#AB90A1"/>
<path d="M566.537 248.123C566.537 248.123 586.693 251.414 588.57 239.03C590.475 226.645 594.345 218.735 581.553 216.108C568.76 213.481 565.555 217.84 563.88 221.824C562.234 225.808 561.339 246.939 566.537 248.123Z" fill="#D2BCCA"/>
<path d="M595.905 214.636C596.078 214.434 596.511 214.261 597.435 214.203C597.435 214.203 596.684 213.741 595.673 213.712C595.471 212.413 594.778 210.104 592.526 209.526C592.526 209.526 593.739 210.161 593.883 211.547C591.284 208.862 585.711 206.928 570.262 208.14C549.903 209.757 556.632 222.777 559.259 224.336C561.887 225.894 568.529 221.622 573.438 222.026C578.347 222.401 579.271 229.503 580.946 230.485C582.621 231.466 581.957 229.734 584.209 228.724C586.462 227.713 586.664 231.437 586.029 233.862C585.364 236.287 588.483 239.491 588.483 239.491C588.483 239.491 588.483 239.491 591.602 236.114C594.721 232.736 597.666 218.475 596.251 215.444C596.164 215.155 596.02 214.896 595.905 214.636Z" fill="#612747"/>
<path d="M592.237 256.668C592.237 256.668 604.972 262.701 611.094 271.968C620.565 286.373 631.567 338.798 631.77 343.677C631.972 348.527 623.742 382.822 623.742 382.822C623.742 382.822 615.396 382.274 613.259 378.059C613.259 378.059 614.934 342.84 613.866 340.559C612.797 338.308 579.098 293.302 582.881 283.689C586.693 274.104 592.237 256.668 592.237 256.668Z" fill="#F3254D"/>
<path d="M494.344 277.194C494.344 277.194 495.037 274.451 493.132 273.239C491.226 272.026 489.493 268.649 488.684 269.11C487.038 270.063 489.58 272.979 489.118 276.616C488.973 277.886 491.948 281.206 494.344 277.194Z" fill="#D2BCCA"/>
<path d="M184.581 536.431C184.581 536.431 154.636 459.786 133.642 471.968C112.62 484.208 184.581 536.431 184.581 536.431Z" fill="#80BD3E"/>
<path d="M169.768 536.431C169.768 536.431 130.206 502.251 112.129 508.602C94.0811 514.953 169.768 536.431 169.768 536.431Z" fill="#80BD3E"/>
<path d="M588.656 547.488C588.656 547.488 597.782 515.79 608.466 519.543C619.151 523.267 588.656 547.488 588.656 547.488Z" fill="#80BD3E"/>
<path d="M596.973 545.755C596.973 545.755 620.248 530.484 625.359 535.219C630.47 539.924 596.973 545.755 596.973 545.755Z" fill="#80BD3E"/>
<path d="M517.446 477.915H335.925C334.713 477.915 333.731 476.933 333.731 475.692C333.731 474.479 334.713 473.498 335.925 473.498H517.446C518.659 473.498 519.64 474.479 519.64 475.692C519.64 476.904 518.659 477.915 517.446 477.915Z" fill="#D7C7D0"/>
<path d="M517.446 486.748H335.925C334.713 486.748 333.731 485.767 333.731 484.526C333.731 483.313 334.713 482.303 335.925 482.303H517.446C518.659 482.303 519.64 483.284 519.64 484.526C519.64 485.738 518.659 486.748 517.446 486.748Z" fill="#D7C7D0"/>
<path d="M517.446 496.535H335.925C334.713 496.535 333.731 495.553 333.731 494.341C333.731 493.128 334.713 492.118 335.925 492.118H517.446C518.659 492.118 519.64 493.099 519.64 494.341C519.64 495.553 518.659 496.535 517.446 496.535Z" fill="#D7C7D0"/>
<path d="M494.113 506.321H335.261C334.395 506.321 333.702 505.628 333.702 504.762V503.463C333.702 502.597 334.395 501.904 335.261 501.904H494.113C494.98 501.904 495.673 502.597 495.673 503.463V504.762C495.673 505.628 494.951 506.321 494.113 506.321Z" fill="#D7C7D0"/>
</g>
<defs>
<clipPath id="clip0">
<rect width="902" height="564" fill="white"/>
</clipPath>
</defs>
</svg>
