<?xml version="1.0" encoding="UTF-8"?>
<svg width="91px" height="40px" viewBox="0 0 91 40" version="1.1" xmlns="http://www.w3.org/2000/svg" xmlns:xlink="http://www.w3.org/1999/xlink">
    <title>4C7C2D75-260E-4B1D-8C2C-D23FA225CE41</title>
    <g id="Page-1" stroke="none" stroke-width="1" fill="none" fill-rule="evenodd">
        <g id="01_mapa" transform="translate(-162.000000, -1597.000000)">
            <g id="footer" transform="translate(0.000000, 1569.000000)">
                <g id="p2p-logo" transform="translate(162.000000, 28.000000)">
                    <polygon id="Fill-1" fill="#AA4994" points="11.4840914 -0.000142197599 0.000213296399 19.889747 11.3518476 19.889747 17.1591976 9.83068883 28.7760305 9.83068883 34.4511367 -0.000142197599"></polygon>
                    <polygon id="Fill-2" fill="#DA437A" points="22.9675429 19.8743186 17.158771 9.81312742 17.159482 9.81526039 28.7748929 9.81526039 34.5829538 19.8743186"></polygon>
                    <g id="Group-10" transform="translate(0.000000, 9.806910)">
                        <path d="M22.9675429,10.0979806 L17.158771,20.1598827 L17.159482,20.1577498 L28.7748929,20.1577498 L34.5829538,10.0986916 C34.5829538,10.0986916 22.9675429,10.0986916 22.9675429,10.0979806" id="Fill-3" fill="#DA1C5C"></path>
                        <polyline id="Fill-5" fill="#9B184D" points="17.1595531 20.1420369 11.3514922 10.0829788 17.1595531 0.023209603 17.1588421 0.021787627 22.967614 10.0836898 17.1609751 20.1420369"></polyline>
                        <polygon id="Fill-7" fill="#6D225F" points="34.4509945 29.9722992 28.7780212 20.1457341 28.7751773 20.1421791 17.1597664 20.1421791 11.3517054 10.08241 7.10987996e-05 10.08241 11.4839492 29.9722992"></polygon>
                    </g>
                    <g id="p2p" transform="translate(41.578947, 5.078486)" fill="#FFFFFF">
                        <path d="M4.96838801,6.40745489 C6.02659393,6.40745489 6.57329773,5.93388346 6.57329773,5.00459774 L6.57329773,4.93388346 C6.57329773,3.96959774 6.02659393,3.58388346 4.98634806,3.58388346 L4.13935229,3.58388346 L4.13935229,6.40745489 L4.96838801,6.40745489 Z M0.152940453,0.619597744 L5.18031656,0.619597744 C8.81327468,0.619597744 10.3664595,2.23316917 10.3664595,4.9167406 L10.3664595,4.9867406 C10.3664595,7.59959774 8.61930619,9.07245489 5.35704341,9.07245489 L4.13935229,9.07245489 L4.13935229,13.1588835 L0.152940453,13.1588835 L0.152940453,0.619597744 Z" id="Fill-9"></path>
                        <path d="M10.9190542,12.6155977 L15.2043212,8.09059774 C16.4737372,6.74059774 17.3214514,5.68845489 17.3214514,4.65416917 C17.3214514,3.93488346 16.9679977,3.40845489 16.1748821,3.40845489 C15.363088,3.40845489 14.8688275,3.91702632 14.7100607,5.3027406 L11.1130227,5.3027406 C11.2179093,2.04059774 13.2114745,0.427740602 16.3688506,0.427740602 C19.5793884,0.427740602 21.2547015,2.12845489 21.2547015,4.4777406 C21.2547015,6.24988346 20.3021007,7.49488346 18.9084011,8.82702632 L17.4615398,10.2127406 L21.3595882,10.2127406 L21.3595882,13.1591692 L10.9190542,13.1591692 L10.9190542,12.6155977 Z" id="Fill-11"></path>
                        <path d="M27.9193872,6.40745489 C28.9775932,6.40745489 29.524297,5.93388346 29.524297,5.00459774 L29.524297,4.93388346 C29.524297,3.96959774 28.9775932,3.58388346 27.9373473,3.58388346 L27.0903515,3.58388346 L27.0903515,6.40745489 L27.9193872,6.40745489 Z M23.1039397,0.619597744 L28.1313158,0.619597744 C31.7642739,0.619597744 33.3174587,2.23316917 33.3174587,4.9167406 L33.3174587,4.9867406 C33.3174587,7.59959774 31.5703054,9.07245489 28.3080426,9.07245489 L27.0903515,9.07245489 L27.0903515,13.1588835 L23.1039397,13.1588835 L23.1039397,0.619597744 Z" id="Fill-13"></path>
                    </g>
                    <g id="models" transform="translate(41.578947, 20.341644)" fill="#FFFFFF">
                        <path d="M0.238588552,0.52693985 L1.79033653,0.52693985 L5.15964118,10.399797 C6.27029043,7.15551128 7.45206147,3.77122556 8.54546907,0.52693985 L10.0972171,0.52693985 L10.0972171,12.8026541 L8.68699424,12.8026541 L8.68699424,4.31479699 C7.75235344,7.06765414 6.72791241,10.0840827 5.79327161,12.8026541 L4.50661391,12.8026541 L1.66677142,4.38479699 L1.66677142,12.8026541 L0.238588552,12.8026541 L0.238588552,0.52693985 Z" id="Fill-15"></path>
                        <path d="M15.3713642,11.5746541 C17.6637845,11.5746541 17.9281564,9.64608271 17.9281564,6.66465414 C17.9281564,3.68322556 17.6637845,1.75393985 15.3713642,1.75393985 C13.0789439,1.75393985 12.8670154,3.68322556 12.8670154,6.66465414 C12.8670154,9.64608271 13.0789439,11.5746541 15.3713642,11.5746541 M15.3713642,0.43893985 C18.8807572,0.43893985 19.357776,3.24465414 19.357776,6.66465414 C19.357776,10.0839398 18.8807572,12.8903684 15.3713642,12.8903684 C11.8605344,12.8903684 11.4381141,10.0839398 11.4381141,6.66465414 C11.4381141,3.24465414 11.8605344,0.43893985 15.3713642,0.43893985" id="Fill-17"></path>
                        <path d="M22.0502025,11.5048684 C22.719753,11.5048684 23.3900219,11.4870113 24.0610092,11.4870113 C26.3002678,11.4170113 26.617083,9.62843985 26.617083,6.66486842 C26.617083,3.71843985 26.3002678,1.84201128 24.0610092,1.84201128 L22.0502025,1.84201128 L22.0502025,11.5048684 Z M20.6220196,0.527011278 L24.0610092,0.527011278 C27.5179589,0.527011278 28.0474211,3.26201128 28.0474211,6.66486842 C28.0474211,10.066297 27.5179589,12.8020113 24.0610092,12.8020113 L20.6220196,12.8020113 L20.6220196,0.527011278 Z" id="Fill-19"></path>
                        <polygon id="Fill-21" points="29.2932017 0.52693985 34.9182881 0.52693985 34.9182881 1.84193985 30.7213846 1.84193985 30.7213846 6.29622556 34.2142543 6.29622556 34.2142543 7.61122556 30.7213846 7.61122556 30.7213846 11.4869398 35.0418532 11.4869398 35.0418532 12.8026541 29.2932017 12.8026541"></polygon>
                        <polygon id="Fill-23" points="35.9075275 0.52693985 37.3191871 0.52693985 37.3191871 11.4169398 41.3939624 11.4169398 41.3939624 12.8026541 35.9075275 12.8026541"></polygon>
                        <path d="M41.8175321,8.87443985 L43.2277549,8.87443985 L43.2277549,9.45301128 C43.2277549,10.5751541 43.8800638,11.5744398 45.7673054,11.5744398 C47.6028221,11.5744398 47.8312739,10.3644398 47.8312739,9.76872556 C47.8312739,8.41801128 46.6315428,7.94443985 45.3448851,7.45372556 C43.721297,6.82229699 41.9928221,6.15586842 41.9928221,3.73586842 C41.9928221,2.80658271 42.5215659,0.438725564 45.6085386,0.438725564 C48.5906247,0.438725564 49.0841667,2.91158271 49.0841667,3.80586842 L49.0841667,4.36658271 L47.6545471,4.36658271 L47.6545471,3.80586842 C47.6545471,2.66658271 47.0022382,1.75372556 45.6085386,1.75372556 C44.2859608,1.75372556 43.4224418,2.54372556 43.4224418,3.73586842 C43.4224418,5.13943985 44.6559378,5.62943985 45.9627107,6.12086842 C47.5676204,6.73443985 49.2594568,7.38372556 49.2594568,9.76872556 C49.2594568,11.2408684 48.4670595,12.8901541 45.7673054,12.8901541 C41.8879355,12.8901541 41.8175321,9.94372556 41.8175321,9.45301128 L41.8175321,8.87443985 Z" id="Fill-25"></path>
                    </g>
                </g>
            </g>
        </g>
    </g>
</svg>